# xmcd CD database file
#
# Track frame offsets:
#	183
#	11215
#	22598
#	32528
#	43613
#	52985
#	65058
#	80383
#	93108
#	102103
#	117040
#	135160
#	147470
#	159748
#	171593
#
# Disc length: 2442 seconds
#
# Revision: 4
# Processed by: cddbd v1.5.1PL0 Copyright (c) Steve Scherf et al.
# Submitted via: CDex 1.51
#
DISCID=b809880f
DTITLE=King Pleasure and The Biscuit Boys - Better Beware!
DYEAR=1994
DGENRE=Blues
TTITLE0=Better Beware
TTITLE1=That's What Makes Old KP Fat
TTITLE2=I'll Wait For You
TTITLE3=World Of Trouble
TTITLE4=Hey Baba Rebop
TTITLE5=Last Laugh Now
TTITLE6=Hot Beef
TTITLE7=Don't You Know
TTITLE8=Love Rollercoaster
TTITLE9=Money Can't Buy Love
TTITLE10=Daddy Of Jive
TTITLE11=Walk 'Em
TTITLE12=Hop Skip And Jump
TTITLE13=Feelin' Happy
TTITLE14=Let 'Em Roll Again
EXTD=YEAR: 1994
EXTT0=
EXTT1=
EXTT2=
EXTT3=
EXTT4=
EXTT5=
EXTT6=
EXTT7=
EXTT8=
EXTT9=
EXTT10=
EXTT11=
EXTT12=
EXTT13=
EXTT14=
PLAYORDER=
